# AST/ASF file generated using VICON BodyLanguage
# -----------------------------------------------
:version 1.10
:name VICON
:units
  mass 1.0
  length 0.45
  angle deg
:documentation
   .ast/.asf automatically generated from VICON data using
   VICON BodyBuilder and BodyLanguage model FoxedUp or BRILLIANT.MOD
:root
   order TX TY TZ RX RY RZ
   axis XYZ
   position 0 0 0  
   orientation 0 0 0 
:bonedata
  begin
     id 1 
     name lhipjoint
     direction 0.603808 -0.713975 0.35448 
     length 2.2025 
     axis 0 0 0  XYZ
  end
  begin
     id 2 
     name lfemur
     direction 0.34202 -0.939693 0  
     length 6.55877  
     axis 0 0 20  XYZ
    dof rx ry rz
    limits (-160.0 20.0)
           (-70.0 70.0)
           (-60.0 70.0)
  end
  begin
     id 3 
     name ltibia
     direction 0.34202 -0.939693 0   
     length 6.80302   
     axis 0 0 20   XYZ
    dof rx
    limits (-10.0 170.0)
  end
  begin
     id 4 
     name lfoot
     direction 0.091848 -0.25235 0.963267   
     length 2.03446   
     axis -90 7.62852e-016 20   XYZ
    dof rx rz
    limits (-45.0 90.0)
           (-70.0 20.0)
  end
  begin
     id 5 
     name ltoes
     direction 1.53608e-011 -4.21925e-011 1   
     length 1.02033   
     axis -90 7.62852e-016 20   XYZ
    dof rx
    limits (-90.0 20.0)
  end
  begin
     id 6 
     name rhipjoint
     direction -0.587285 -0.724947 0.359928   
     length 2.16916  
     axis 0 0 0  XYZ 
  end
  begin
     id 7 
     name rfemur
     direction -0.34202 -0.939693 0   
     length 6.43173   
     axis 0 0 -20   XYZ
    dof rx ry rz
    limits (-160.0 20.0)
           (-70.0 70.0)
           (-70.0 60.0)
  end
  begin
     id 8 
     name rtibia
     direction -0.34202 -0.939693 0   
     length 6.70662   
     axis 0 0 -20   XYZ
    dof rx
    limits (-10.0 170.0)
 end
 begin
     id 9 
     name rfoot
     direction -0.11854 -0.325686 0.938018   
     length 2.0773  
     axis -90 -7.62852e-016 -20   XYZ
    dof rx rz
    limits (-45.0 90.0)
           (-20.0 70.0)
  end
  begin
     id 10 
     name rtoes
     direction -1.53547e-011 -4.21838e-011 1   
     length 1.03267   
     axis -90 -7.62852e-016 -20   XYZ
    dof rx
    limits (-90.0 20.0)
  end
  begin
     id 11 
     name lowerback
     direction -0.0286554 0.999539 0.0100613   
     length 2.08751   
     axis 0 0 0   XYZ
    dof rx ry rz
    limits (-20.0 45.0)
           (-30.0 30.0)
           (-30.0 30.0)
  end
  begin
     id 12 
     name upperback
     direction 0.0227093 0.999705 -0.00860929   
     length 2.08517   
     axis 0 0 0   XYZ
    dof rx ry rz
    limits (-20.0 45.0)
           (-30.0 30.0)
           (-30.0 30.0)
  end
  begin
     id 13 
     name thorax
     direction 0.0351627 0.999285 -0.013892   
     length 2.08412   
     axis 0 0 0   XYZ
    dof rx ry rz
    limits (-20.0 45.0)
           (-30.0 30.0)
           (-30.0 30.0)
  end
  begin
     id 14 
     name lowerneck
     direction -0.0696283 0.997344 0.0213922   
     length 1.44164   
     axis 0 0 0   XYZ
    dof rx ry rz
    limits (-20.0 45.0)
           (-30.0 30.0)
           (-30.0 30.0)
  end
  begin
     id 15 
     name upperneck
     direction 0.0531 0.990412 -0.127531   
     length 1.45022   
     axis 0 0 0   XYZ
    dof rx ry rz
    limits (-20.0 45.0)
           (-30.0 30.0)
           (-30.0 30.0)
  end
  begin
     id 16
     name head
     direction 0.0188154 0.998548 -0.0504727  
     length 1.45845  
     axis 0 0 0   XYZ
    dof rx ry rz
    limits (-20.0 45.0)
           (-30.0 30.0)
           (-30.0 30.0)
  end
  begin
     id 17 
     name lclavicle
     direction 0.961559 0.260051 0.088188  
     length 2.86057  
     axis 0 0 0   XYZ
    dof ry rz
    limits (-20.0 10.0)
           (0.0 20.0)
  end
  begin
     id 18 
     name lhumerus
     direction 1 -4.48959e-011 2.88185e-027   
     length 4.36901   
     axis 180 -30 -90   XYZ
    dof rx ry rz
    limits (-60.0 90.0)
           (-90.0 90.0)
           (-90.0 90.0)
  end
  begin
     id 19
     name lradius
     direction 1 -4.48965e-011 -3.92618e-028   
     length 3.21737   
     axis 180 -30 -90   XYZ
    dof rx
    limits (-10.0 170.0)
  end
  begin
     id 20
     name lwrist
     direction 1 -4.49037e-011 2.57246e-027   
     length 1.60869   
     axis -1.61769e-015 90 90   XYZ
    dof ry
    limits (-180.0 0.0)
 end
  begin
     id 21 
     name lhand
     direction 1 -4.48807e-011 5.12958e-027   
     length 0.564313   
     axis -3.27988e-015 90 90   XYZ
    dof rx rz
    limits (-90.0 90.0)
           (-45.0 45.0)
  end
  begin
     id 22 
     name lfingers
     direction 1 -4.48879e-011 1.02687e-026   
     length 0.454963   
     axis -6.5598e-015 90 90   XYZ
    dof rx
    limits (0.0 90.0)
  end
  begin
     id 23
     name lthumb
     direction 0.707107 -6.3475e-011 0.707107   
     length 0.653239   
     axis -90 45 2.19363e-014   XYZ
    dof rx rz
    limits (-45.0 45.0)
           (-45.0 45.0)
  end
  begin
     id 24 
     name rclavicle
     direction -0.954677 0.253915 0.155304   
     length 3.11497  
     axis 0 0 0   XYZ 
    dof ry rz
    limits (-10.0 20.0)
           (-20.0 0.0)
  end
  begin
     id 25 
     name rhumerus
     direction -1 -4.48958e-011 -8.20169e-028  
     length 4.34118   
     axis 180 30 90   XYZ
    dof rx ry rz
    limits (-90.0 60.0)
           (-90.0 90.0)
           (-90.0 90.0)
  end
  begin
     id 26 
     name rradius
     direction -1 -4.48978e-011 1.5676e-027   
     length 3.09531   
     axis 180 30 90   XYZ
    dof rx
    limits (-10.0 170.0)
  end
  begin
     id 27 
     name rwrist
     direction -1 -4.49001e-011 2.57123e-027   
     length 1.54765   
     axis -1.61769e-015 -90 -90   XYZ
    dof ry
    limits (-180.0 0.0)
  end
  begin
     id 28
     name rhand
     direction -1 -4.48847e-011 5.13225e-027   
     length 0.597446   
     axis -3.27988e-015 -90 -90   XYZ
    dof rx rz
    limits (-90.0 90.0)
           (-45.0 45.0)
  end
  begin
     id 29
     name rfingers
     direction -1 -4.49094e-011 1.02974e-026   
     length 0.481677   
     axis -6.5598e-015 -90 -90   XYZ
    dof rx
    limits (0.0 90.0)
  end
  begin
     id 30
     name rthumb
     direction -0.707107 -6.34859e-011 0.707107   
     length 0.691594   
     axis -90 -45 -2.19363e-014   XYZ
    dof rx rz
    limits (-45.0 45.0)
           (-45.0 45.0)
  end
:hierarchy
  begin
    root lhipjoint rhipjoint lowerback
    lhipjoint lfemur
    lfemur ltibia
    ltibia lfoot
    lfoot ltoes
    rhipjoint rfemur
    rfemur rtibia
    rtibia rfoot
    rfoot rtoes
    lowerback upperback
    upperback thorax
    thorax lowerneck lclavicle rclavicle
    lowerneck upperneck
    upperneck head
    lclavicle lhumerus
    lhumerus lradius
    lradius lwrist
    lwrist lhand lthumb
    lhand lfingers
    rclavicle rhumerus
    rhumerus rradius
    rradius rwrist
    rwrist rhand rthumb
    rhand rfingers
  end

#!OML:ASF I:\Acrobat_Osman\acrobat\cartwheel_test 2\Patient 1\Session 1\acrobat.ASF
:FULLY-SPECIFIED
:DEGREES
65
root 9.92121 15.7194 13.6694 7.6328 4.259 2.15056
lowerback -10.2554 -5.24219 -4.2202
upperback -1.8776 -6.7387 4.71752
thorax 4.82764 -3.45751 6.33204
lowerneck -11.1945 -5.94401 -14.5119
upperneck 26.5193 -5.6866 1.57214
head 10.9674 -3.88516 2.24855
rclavicle 3.01159e-014 -3.18055e-015
rhumerus -35.2724 0.528646 -59.666
rradius 21.8241
rwrist 11.3861
rhand -11.8023 21.2514
rfingers 7.12502
rthumb 14.2475 -8.23984
lclavicle 3.01159e-014 -3.18055e-015
lhumerus -19.735 -12.0636 88.6278
lradius 29.8071
lwrist 12.7742
lhand -6.81892 52.4792
lfingers 7.12502
lthumb 19.045 81.5667
rfemur -15.4694 13.1196 19.0542
rtibia 35.2944
rfoot -32.7595 -30.0702
rtoes 3.44469
lfemur -19.6944 0.464808 -19.889
ltibia 39.0803
lfoot -21.845 14.3678
ltoes -13.8923
66
root 9.92587 15.728 13.635 7.60709 4.89885 2.17788
lowerback -9.72873 -5.54631 -4.20634
upperback -1.83516 -7.16772 4.8469
thorax 4.65924 -3.67152 6.42935
lowerneck -11.2942 -5.30534 -14.699
upperneck 26.8883 -4.70033 1.53738
head 11.0442 -3.47312 2.40367
rclavicle -1.48592e-014 1.59028e-015
rhumerus -35.3765 -0.00974203 -56.5071
rradius 21.3393
rwrist 12.589
rhand -12.6859 21.2699
rfingers 7.12502
rthumb 13.396 -8.2794
lclavicle -1.48592e-014 1.59028e-015
lhumerus -18.3404 -12.8545 88.3371
lradius 30.9917
lwrist 13.0159
lhand -6.63829 52.9172
lfingers 7.12502
lthumb 19.2187 81.9876
rfemur -15.515 13.063 18.9751
rtibia 35.198
rfoot -32.8407 -30.0928
rtoes 4.4426
lfemur -20.045 0.78155 -19.8863
ltibia 39.1584
lfoot -21.3441 13.6529
ltoes -14.8563
67
root 9.92669 15.7564 13.5931 7.65076 5.48437 2.14013
lowerback -9.09127 -5.82616 -4.17668
upperback -1.8765 -7.56873 5.03292
thorax 4.34423 -3.86763 6.60224
lowerneck -11.1582 -4.73085 -15.0967
upperneck 27.0875 -3.83864 1.64129
head 11.0296 -3.11846 2.62974
rclavicle -1.49585e-014 1.90833e-014
rhumerus -35.6882 -0.177805 -53.3837
rradius 21.0837
rwrist 12.971
rhand -11.5182 19.1349
rfingers 7.12502
rthumb 14.5212 -10.3368
lclavicle -1.49585e-014 1.90833e-014
lhumerus -17.1846 -13.6382 88.1692
lradius 32.226
lwrist 13.1702
lhand -6.79931 52.8042
lfingers 7.12502
lthumb 19.0638 81.8899
rfemur -15.6772 12.9055 18.9566
rtibia 35.1229
rfoot -32.6193 -30.2736
rtoes 4.57211
lfemur -20.3483 1.26726 -19.7951
ltibia 39.2369
lfoot -21.2624 12.2497
ltoes -13.1982
68
root 9.93073 15.7707 13.5451 7.72349 5.88484 2.0789
lowerback -8.53303 -6.02494 -4.04141
upperback -1.78725 -7.86897 5.17637
thorax 4.17691 -4.01788 6.67865
lowerneck -11.2669 -4.21916 -15.3987
upperneck 27.2188 -3.04546 1.75458
head 11.0356 -2.78002 2.82883
rclavicle 3.05631e-014 1.90833e-014
rhumerus -35.8697 -0.607455 -50.2473
rradius 20.7706
rwrist 13.3138
rhand -10.7976 17.61
rfingers 7.12502
rthumb 15.2155 -11.8105
lclavicle 3.05631e-014 1.90833e-014
lhumerus -15.909 -14.3501 87.9399
lradius 33.4388
lwrist 13.2224
lhand -7.01484 52.579
lfingers 7.12502
lthumb 18.8566 81.685
rfemur -15.9919 12.3737 18.8718
rtibia 35.1746
rfoot -31.8933 -30.1226
rtoes 3.51874
lfemur -20.7674 1.93257 -19.726
ltibia 39.2057
lfoot -20.8567 11.246
ltoes -13.4072
69
root 9.93769 15.7771 13.4916 7.80378 6.21205 2.11214
lowerback -7.97389 -6.19665 -3.92771
upperback -1.6211 -8.12674 5.21931
thorax 4.07103 -4.14918 6.66701
lowerneck -11.5272 -3.75012 -15.4488
upperneck 27.3693 -2.3051 1.73835
head 11.0724 -2.45597 2.93008
rclavicle -1.86858e-014 1.74931e-014
rhumerus -36.1066 -1.17067 -47.2557
rradius 20.5527
rwrist 13.7141
rhand -10.89 17.0336
rfingers 7.12502
rthumb 15.1264 -12.3936
lclavicle -1.86858e-014 1.74931e-014
lhumerus -14.5549 -15.0826 87.6328
lradius 34.5824
lwrist 13.3156
lhand -7.56703 52.3877
lfingers 7.12502
lthumb 18.3254 81.5445
rfemur -16.3691 11.7 18.5876
rtibia 35.2437
rfoot -31.0676 -29.5374
rtoes 2.78278
lfemur -21.2422 2.58534 -19.7745
ltibia 39.1732
lfoot -20.3778 10.4362
ltoes -14.6161
70
root 9.9428 15.7896 13.4283 7.87087 6.5387 2.11909
lowerback -7.19329 -6.36374 -3.79129
upperback -1.55569 -8.3783 5.24111
thorax 3.72765 -4.26975 6.65474
lowerneck -11.4254 -3.30072 -15.502
upperneck 27.4126 -1.67725 1.76593
head 11.0069 -2.17448 3.03445
rclavicle 4.16454e-014 -4.92986e-014
rhumerus -36.5506 -1.70293 -44.3685
rradius 20.3924
rwrist 14.1359
rhand -10.5593 16.5036
rfingers 7.12502
rthumb 15.445 -12.8994
lclavicle 4.16454e-014 -4.92986e-014
lhumerus -13.4087 -15.8595 87.4025
lradius 35.5002
lwrist 13.2841
lhand -8.08571 52.4974
lfingers 7.12502
lthumb 17.8264 81.7003
rfemur -16.8005 11.1358 18.3066
rtibia 35.3669
rfoot -30.0432 -29.0145
rtoes 1.7784
lfemur -21.6911 2.93541 -19.7568
ltibia 39.1322
lfoot -19.889 9.6258
ltoes -15.475
